# xmcd
#
# Track frame offsets:
#	150
#	22375
#	44702
#	62250
#	82464
#	98389
#	121376
#	144206
#	165564
#	187485
#	206457
#	224152
#
# Disc length: 3246 seconds
#
# Revision: 0
# Processed by: cddbd v1.4PL0 Copyright (c) Steve Scherf et al.
# Submitted via: audiograbber 1.82.01
#
DISCID=b90cac0c
DTITLE=Guachin - las dos caras de la villa
DYEAR=2000
DGENRE=bailanta
TTITLE0=cumbia del pelegrino
TTITLE1=el aguante
TTITLE2=la cumbia de los limados
TTITLE3=sos un canto
TTITLE4=como grita tu señora
TTITLE5=rescate guachin
TTITLE6=amar de madre
TTITLE7=vuela paloma
TTITLE8=cumbia timbera
TTITLE9=el masturbon
TTITLE10=lamento de guachin (duo con amar azul)
TTITLE11=la danza del portero
EXTD=
EXTT0=
EXTT1=
EXTT2=
EXTT3=
EXTT4=
EXTT5=
EXTT6=
EXTT7=
EXTT8=
EXTT9=
EXTT10=
EXTT11=
PLAYORDER=
